<svg width="26" height="24" viewBox="0 0 26 24" fill="none" xmlns="http://www.w3.org/2000/svg">
<path d="M22.1316 3.37573H7.62027C7.41312 3.37573 7.24527 3.54358 7.24527 3.75073C7.24527 3.95788 7.41312 4.12573 7.62027 4.12573H22.1316C22.3387 4.12573 22.5066 3.95788 22.5066 3.75073C22.5066 3.54358 22.3387 3.37573 22.1316 3.37573Z" fill="#FFEFF3"/>
<path d="M22.1316 6.29468H7.62027C7.41312 6.29468 7.24527 6.46253 7.24527 6.66968C7.24527 6.87683 7.41312 7.04468 7.62027 7.04468H22.1316C22.3387 7.04468 22.5066 6.87683 22.5066 6.66968C22.5066 6.46253 22.3387 6.29468 22.1316 6.29468Z" fill="#FFEFF3"/>
<path d="M14.876 9.21362H7.62027C7.41312 9.21362 7.24527 9.38147 7.24527 9.58862C7.24527 9.79577 7.41312 9.96362 7.62027 9.96362H14.8759C15.0831 9.96362 15.2509 9.79577 15.2509 9.58862C15.2509 9.38147 15.0831 9.21362 14.876 9.21362Z" fill="#FFEFF3"/>
<path d="M23.3713 0.0563965H6.18043C4.84123 0.0563965 3.75168 1.14595 3.75168 2.48515V10.8542C3.75168 12.1934 4.84123 13.2829 6.18043 13.2829H6.26718L5.78028 15.9867C5.73433 16.2414 5.85653 16.4952 6.08433 16.6181C6.31108 16.7405 6.59048 16.7048 6.77913 16.5257L10.1111 13.3628C10.1654 13.3113 10.2365 13.2829 10.3113 13.2829H23.3713C24.7105 13.2829 25.8 12.1933 25.8 10.8541V2.48515C25.8 1.14595 24.7105 0.0563965 23.3713 0.0563965ZM25.05 10.8542C25.05 11.7799 24.2969 12.5329 23.3713 12.5329H10.3113C10.0435 12.5329 9.78908 12.6344 9.59483 12.8188L6.60108 15.6607L7.02443 13.31C7.09743 12.9048 6.78578 12.5329 6.37483 12.5329H6.18048C5.25478 12.5329 4.50173 11.7798 4.50173 10.8542V2.48515C4.50173 1.55945 5.25483 0.806397 6.18048 0.806397H23.3713C24.2969 0.806397 25.05 1.55945 25.05 2.48515V10.8542Z" fill="#F65D88"/>
<path d="M21.8734 14.286C21.6662 14.286 21.4984 14.4539 21.4984 14.661V18.1075C21.4984 19.0332 20.7453 19.7863 19.8196 19.7863H6.75946C6.49171 19.7863 6.23726 19.8878 6.04306 20.0722L3.04936 22.914L3.47266 20.5635C3.54561 20.1591 3.23496 19.7863 2.82306 19.7863H2.62876C1.70311 19.7863 0.950012 19.0332 0.950012 18.1075V9.73849C0.950012 8.87974 1.59261 8.16234 2.44476 8.06969C2.65066 8.04734 2.79941 7.86229 2.77706 7.65634C2.75471 7.45049 2.57006 7.30144 2.36371 7.32404C1.13021 7.45819 0.200012 8.49614 0.200012 9.73849V18.1075C0.200012 19.4467 1.28956 20.5363 2.62876 20.5363H2.71546L2.22856 23.2401C2.18266 23.4949 2.30491 23.7486 2.53276 23.8715C2.75951 23.9938 3.03886 23.9581 3.22741 23.779L6.55946 20.6161C6.61371 20.5646 6.68476 20.5362 6.75956 20.5362H19.8196C21.1588 20.5362 22.2484 19.4467 22.2484 18.1075V14.661C22.2484 14.4539 22.0805 14.286 21.8734 14.286Z" fill="#F65D88"/>
</svg>
